# xmcd CD database file
#
# Track frame offsets:
#	150
#	13870
#	31845
#	54880
#	78281
#	105740
#	121439
#	140445
#	156467
#	176358
#	199174
#
# Disc length: 2892 seconds
#
# Revision: 0
# Processed by: cddbd v1.5.2PL0 Copyright (c) Steve Scherf et al.
# Submitted via: CDex 1.70beta2
#
DISCID=8a0b4a0b
DTITLE=Farfarello - pas cu pas
DYEAR=2008
DGENRE=Jazz
TTITLE0=pas cu pas
TTITLE1=gomusic
TTITLE2=weite Felder
TTITLE3=die Moldau
TTITLE4=Bucuresti
TTITLE5=die Lerche
TTITLE6=wild dice
TTITLE7=Russe
TTITLE8=Mephisto
TTITLE9=Saravah
TTITLE10=Kleiner Engel
EXTD=YEAR: 2008
EXTT0=
EXTT1=
EXTT2=
EXTT3=
EXTT4=
EXTT5=
EXTT6=
EXTT7=
EXTT8=
EXTT9=
EXTT10=
PLAYORDER=
